<svg version="1.1" xmlns="http://www.w3.org/2000/svg" xmlns:xlink="http://www.w3.org/1999/xlink" width="488" height="361.5" viewBox="0,0,488,361.5"><g transform="translate(5.89999,3.2)"><g data-paper-data="{&quot;isPaintingLayer&quot;:true}" fill="none" fill-rule="nonzero" stroke-linecap="round" stroke-linejoin="miter" stroke-miterlimit="10" stroke-dasharray="" stroke-dashoffset="0" style="mix-blend-mode: normal"><path d="M2.60001,306.8h109" stroke="#d50000" stroke-width="5"/><path d="M96.60001,188.8l1,118" stroke="#d50000" stroke-width="5"/><path d="M95.60001,217.8l185,-3" stroke="#d50000" stroke-width="5"/><path d="M176.60001,272.82913v82.97087" stroke="#d50000" stroke-width="5"/><path d="M212.60001,137.8l4,76" stroke="#d50000" stroke-width="5"/><path d="M174.60001,314.8l210,-3" stroke="#d50000" stroke-width="5"/><path d="M-3.39999,134.8l149,-4" stroke="#d50000" stroke-width="5"/><path d="M379.60001,81.8l1,175" stroke="#d50000" stroke-width="5"/><path d="M379.60001,123.8h49" stroke="#d50000" stroke-width="5"/><path d="M3.60001,74.8l203,-3" stroke="#d50000" stroke-width="5"/><path d="M377.60001,151.8h-71" stroke="#d50000" stroke-width="5"/><path d="M324.60001,239.8l2,70" stroke="#d50000" stroke-width="5"/><path d="M377.60001,216.8l58,-1l44,-1" stroke="#d50000" stroke-width="5"/><path d="M380.60001,89.8l-4,-45l60,-2" stroke="#d50000" stroke-width="5"/><path d="M96.60001,249.8l-51,1" stroke="#d50000" stroke-width="5"/><path d="M252.60001,270.8v39" stroke="#d50000" stroke-width="5"/><path d="M101.60001,48.8v22" stroke="#d50000" stroke-width="5"/><path d="M267.60001,53.8l5,64l-5,4l-57,1l2,24" stroke="#d50000" stroke-width="5"/><path d="M26.60001,2.8l2,66" stroke="#37c733" stroke-width="12"/></g></g></svg>